<svg viewBox="0 0 512 512"><path d="M274.5 216.4l23.1 12.8 36.5-12.3v-24.7c0-42.7-35.7-75.9-78.1-75.9 -42.3 0-78.1 31.1-78.1 75.4 0 44.4 0 113.1 0 113.1 0 10.2-8.3 18.5-18.5 18.5 -10.2 0-18.5-8.3-18.5-18.5v-47.9H80.9c0 0 0 48 0 48.6 0 43.2 35 78.3 78.3 78.3 42.9 0 77.7-34.4 78.3-77.2v-111.7c0-10.2 8.3-18.5 18.5-18.5 10.2 0 18.5 8.3 18.5 18.5L274.5 216.4 274.5 216.4zM371.2 256.9v50.2c0 10.2-8.3 18.5-18.5 18.5 -10.2 0-18.5-8.3-18.5-18.5v-49.2l-36.5 12.4 -23.1-12.8v48.8c0.4 42.9 35.3 77.6 78.3 77.6 43.2 0 78.3-35 78.3-78.3 0-0.6 0-48.6 0-48.6L371.2 256.9 371.2 256.9z"/></svg>
